#!OML:ASF F:\VICON\USERDATA\INSTALL\rory3\rory3.ASF
:FULLY-SPECIFIED
:DEGREES
39
root -0.6071104337669443 17.850172246311324 14.564535851523857 5.7022739232417 -2.2838817386879477 -7.19121252795672
lfemur -45.19091618079263 -1.7180280320432564 -10.831250623096134
ltibia 40.70277024461117
lfoot -1.7704206828106446 1.523728651774145
ltoes -12.483436359495307
rfemur 12.164770740158293 5.274348970296927 38.07485025863001
rtibia 36.576849044133375
rfoot -13.854725710307745 -7.364722018013774
rtoes 1.6923994366876807
lowerback 14.334736609746013 2.8070280687373375 7.851450712861402
upperback -1.4662090652501258 5.165763913292251 2.5391989900706013
thorax -9.385081367902767 2.144371761857803 -4.1178208018147044
lowerneck -21.47066527526803 -4.5519127393101835 -1.5589416026173548
upperneck 13.121294992599916 -6.359268011916921 2.8789720656280835
head 7.635402813963335 -2.7703476386659753 0.4774365434427559
lclavicle -2.3096819800633816e-15 1.3620690475326255e-15
lhumerus -67.50958681315655 -12.582582747871587 100.4251531085152
lradius 107.43626531827793
lwrist 34.51531021806701
lhand -25.359158848371006 1.0726464610411275
lfingers 7.12502
lthumb 1.1646967114934677 31.046047299742366
rclavicle -2.3096819800633816e-15 1.3620690475326255e-15
rhumerus -34.99262747695545 18.06492968228801 -101.37854712447444
rradius 116.60623294540707
rwrist -14.097943502497479
rhand -18.12493006938871 40.3158749501156
rfingers 7.12502
rthumb 8.149623388604281 10.693003275212138
40
root -0.5192712097581466 17.5498256531286 16.749848795995337 6.576727312247348 -2.7814991461758223 -7.147385097850254
lfemur -42.69623821352992 -5.287561498146348 -10.023326781771283
ltibia 26.580144988189954
lfoot -0.09015477743079736 2.29837072475208
ltoes -12.19254423603509
rfemur 18.69397037902912 5.626768363997405 38.23619849720655
rtibia 36.70007577474571
rfoot -14.224187368229773 -5.896489370308391
rtoes -5.749501101923476
lowerback 13.629087754355684 3.167935188739401 8.125365270873612
upperback -1.6371167991677686 5.668519260625436 2.453826100439708
thorax -9.160436129072307 2.3610113614793926 -4.2330401444180845
lowerneck -21.7893759325774 -4.638523543706317 -1.4743273400175565
upperneck 12.982838263626714 -6.539683908622548 3.0581623533007942
head 7.637392581075577 -2.8236113839798893 0.5063871205947884
lclavicle -1.1936682081197418e-15 2.1716601606693065e-15
lhumerus -68.9550899858072 -10.644031811352807 99.70605192565878
lradius 105.00791225453536
lwrist 33.27625930014219
lhand -25.153796932315597 1.5925324813564015
lfingers 7.12502
lthumb 1.3630423882836051 31.566129083603272
rclavicle -1.1936682081197418e-15 2.1716601606693065e-15
rhumerus -32.51549605297971 18.57915863445618 -101.29643118480828
rradius 118.24824465535741
rwrist -14.253336155883982
rhand -18.250853100860617 40.793351270483036
rfingers 7.12502
rthumb 8.027986002594002 11.169576066874255
41
root -0.4279187258153262 17.26440041030636 18.094998252678227 6.635874930619876 -2.9379809347306622 -6.891065585467446
lfemur -41.49105283251365 -6.274297713826961 -10.87635195466164
ltibia 21.23445182748171
lfoot 1.7525630051752217 0.5128760288953957
ltoes -12.168303463469357
rfemur 22.676041377570318 5.548646653312446 37.47922875412161
rtibia 38.84637511042754
rfoot -12.237975534650039 -3.392486489770586
rtoes -13.50169761550093
lowerback 13.099475066971916 3.2846118393242505 7.789104566555795
upperback -1.8125393064406625 5.760942429646 2.1971632680685933
thorax -9.073306846795782 2.409935984342861 -4.253927342134217
lowerneck -21.701329510359148 -4.898470165012295 -1.4855628562425158
upperneck 13.013944212342762 -6.956354652016579 3.216252575873152
head 7.639791183786944 -2.993571217561077 0.5341612653815451
lclavicle -1.4898553756576786e-15 1.9569957923235007e-15
lhumerus -70.81680152915533 -8.95262379020723 98.59029151807009
lradius 101.83288300662781
lwrist 31.411181439362093
lhand -24.80806947809693 1.9697624375030043
lfingers 7.12502
lthumb 1.6969355823779046 31.943463699533826
rclavicle -1.4898553756576786e-15 1.9569957923235007e-15
rhumerus -32.295533650067895 17.93197296249405 -101.21603649429402
rradius 118.78439237705444
rwrist -14.011789496242947
rhand -18.44455600917521 40.97142316990007
rfingers 7.12502
rthumb 7.840952127670652 11.296469019287251
42
root -0.3240477272463322 17.118012853643048 20.010807991916657 5.989375025249144 -2.606774463833408 -6.217758153968097
lfemur -40.23455363800204 -5.122591852393236 -12.806902273098801
ltibia 25.254304319508627
lfoot 4.451109875622693 -2.64627387767608
ltoes -11.114125639436086
rfemur 24.607571671826708 4.650053114368659 36.20558999347084
rtibia 47.27245490016259
rfoot -4.727096984066241 0.4982288484614541
rtoes -16.96909185907105
lowerback 12.797706370063791 3.339847056640922 7.209036783683184
upperback -1.8936520014583755 5.733415615150055 1.8215720984899182
thorax -9.046103450356766 2.4116850017519775 -4.085069110926881
lowerneck -21.272742878860488 -5.23948805392017 -1.532916188493594
upperneck 13.24027575360765 -7.463575393938209 3.4045564133917163
head 7.657513831509081 -3.2160677406748013 0.5854885819661177
lclavicle -1.2057007145107233e-15 2.1631954629795235e-15
lhumerus -72.1970655726859 -6.909812829880279 97.2316093300811
lradius 98.6044593909608
lwrist 29.33326055856535
lhand -24.0598903626102 2.4212789784523436
lfingers 7.12502
lthumb 2.419468624759748 32.3918871812622
rclavicle -1.2057007145107233e-15 2.1631954629795235e-15
rhumerus -33.50928539491899 16.73857707594458 -101.00126748390726
rradius 118.69848823519932
rwrist -13.529414146686582
rhand -18.508832704482334 40.94116803577016
rfingers 7.12502
rthumb 7.778875451887744 11.227233304201272
43
root -0.2233496833140679 17.140515487151504 21.14236806527896 4.843254754043949 -2.266992324752528 -5.324680749768854
lfemur -39.24471014808206 -3.342254045343478 -15.676883436277775
ltibia 32.66517900993201
lfoot 5.808443670374065 -6.00344779512204
ltoes -9.486521247241805
rfemur 22.472400481601074 2.9671909756736303 34.0704986436166
rtibia 60.262335165863206
rfoot 8.892615183316659 4.332667280220236
rtoes -12.163495065314901
lowerback 12.63772570148102 3.314491735253213 6.182745910166065
upperback -1.9897076529828892 5.540376893633954 1.2655759505222814
thorax -9.120550660297248 2.349535667795344 -3.851458228005185
lowerneck -20.804729363151864 -5.606748836115056 -1.6237424138404484
upperneck 13.570681101480373 -8.001980475037149 3.570541742953342
head 7.696336112676031 -3.4533821402446 0.6380077552882129
lclavicle -1.6997440027083961e-15 1.8048305377280397e-15
lhumerus -73.60408705560832 -5.206337161670822 95.70505269952386
lradius 95.57388335743255
lwrist 27.74775867617977
lhand -23.12637718518991 3.0821919408447602
lfingers 7.12502
lthumb 3.320964210799488 33.045797845961914
rclavicle -1.6997440027083961e-15 1.8048305377280397e-15
rhumerus -36.48970737919938 14.895751870810518 -100.78430926996815
rradius 117.88296024138113
rwrist -13.066315447809874
rhand -18.431061581326485 40.72625810497601
rfingers 7.12502
rthumb 7.853944505713141 10.993233480807183
